<svg width="512" height="512" viewBox="0 0 512 512" fill="none" xmlns="http://www.w3.org/2000/svg">
<path d="M107.13 256.329C90.7296 231.929 89.2963 197.829 90.6296 183.829C6.62967 264.229 78.9629 307.329 125.63 318.829C112.43 299.229 107.796 268.995 107.13 256.329Z" fill="#EB667B"/>
<path d="M239 165C88.4998 257 264.63 398.329 352.63 336.829C254.63 443.229 167.463 356.495 136.13 299.829C90.1296 139.329 247.63 110.017 295.13 128.329C467.63 194.829 372.13 364.829 264.13 325.829C143.63 265.829 225.13 180.329 264.13 180.329C352.63 186.829 340.63 264.329 305.63 277.829C323.23 226.229 285.296 213.995 264.13 214.329C198.93 237.529 233.13 312.829 290.63 299.829C389.43 285.029 358 124 239 165Z" fill="#DF3B5E"/>
<path d="M224.63 400.829C373.63 500.329 416.63 347.829 401.13 282.329L385.63 305.829C359.23 404.629 267.296 410.329 224.63 400.829Z" fill="#EB667B"/>
<path d="M141.13 342.829C114.33 337.229 92.2963 327.495 84.6296 323.329C121.83 411.729 201.463 432.829 236.63 432.329C197.43 408.329 156.63 362.662 141.13 342.829Z" fill="#B22051"/>
<path d="M408.13 253.829C416.13 228.229 402.463 194.495 394.63 180.829C499.03 237.629 454.796 320.829 419.63 355.329C431.23 296.529 416.796 263.162 408.13 253.829Z" fill="#F9A1A0"/>
<path d="M275.63 105.329C235.463 98.4955 146.33 110.029 111.13 210.829C107.963 141.995 136.43 24.5288 275.63 105.329Z" fill="#F69A9B"/>
<path d="M319.63 116.829C302.83 97.2288 283.296 84.9955 275.63 81.3288C353.629 78.5288 399.796 139.495 413.13 170.329L369.63 150.829C356.83 135.229 330.963 121.662 319.63 116.829Z" fill="#F69A9B"/>
</svg>
