<svg width="408" height="356" viewBox="0 0 408 356" fill="none" xmlns="http://www.w3.org/2000/svg">
<path d="M55.1296 178.329C38.7296 153.929 37.2963 119.829 38.6296 105.829C-45.3703 186.229 26.9629 229.329 73.6295 240.829C60.4295 221.229 55.7963 190.995 55.1296 178.329Z" fill="#EB667B"/>
<path d="M187 87C36.4998 179 212.63 320.329 300.63 258.829C202.63 365.229 115.463 278.495 84.1296 221.829C38.1296 61.3288 195.63 32.0172 243.13 50.3288C415.63 116.829 320.13 286.829 212.13 247.829C91.6296 187.829 173.13 102.329 212.13 102.329C300.63 108.829 288.63 186.329 253.63 199.829C271.23 148.229 233.296 135.995 212.13 136.329C146.93 159.529 181.13 234.829 238.63 221.829C337.43 207.029 306 46 187 87Z" fill="#DF3B5E"/>
<path d="M172.63 322.829C321.63 422.329 364.63 269.829 349.13 204.329L333.63 227.829C307.23 326.629 215.296 332.329 172.63 322.829Z" fill="#EB667B"/>
<path d="M89.1296 264.829C62.3296 259.229 40.2963 249.495 32.6296 245.329C69.8296 333.729 149.463 354.829 184.63 354.329C145.43 330.329 104.63 284.662 89.1296 264.829Z" fill="#B22051"/>
<path d="M356.13 175.829C364.13 150.229 350.463 116.495 342.63 102.829C447.03 159.629 402.796 242.829 367.63 277.329C379.23 218.529 364.796 185.162 356.13 175.829Z" fill="#F9A1A0"/>
<path d="M223.63 27.3288C183.463 20.4955 94.3295 32.0288 59.1295 132.829C55.9629 63.9955 84.4296 -53.4712 223.63 27.3288Z" fill="#F69A9B"/>
<path d="M267.63 38.8288C250.83 19.2288 231.296 6.99546 223.63 3.3288C301.629 0.528796 347.796 61.4955 361.13 92.3288L317.63 72.8288C304.83 57.2288 278.963 43.6621 267.63 38.8288Z" fill="#F69A9B"/>
</svg>
